<svg xmlns="http://www.w3.org/2000/svg" viewBox="456 256 48 48" enable-background="new 456 256 48 48"><linearGradient id="a" gradientUnits="userSpaceOnUse" x1="480.042" y1="303.917" x2="480.042" y2="256"><stop offset="0" stop-color="#F8350F"/><stop offset="1" stop-color="#F79610"/></linearGradient><path fill="url(#a)" d="M504 297.928c0 3.307-2.683 5.99-5.99 5.99h-35.937c-3.308 0-5.99-2.684-5.99-5.99V261.99c0-3.307 2.682-5.99 5.99-5.99h35.938c3.308 0 5.99 2.683 5.99 5.99v35.938z"/><path d="M491.69 277.607l.004-.248h-.005v.247zm-30.148 4.19c0 .778.118 1.43.306 1.982v-3.89c-.19.526-.306 1.153-.306 1.907zm1.13-2.85v5.854c.25.454.542.805.833 1.067v-7.86c-.302.235-.59.54-.832.94zm1.665-1.42v8.914c.334.17.57.223.57.223h.26v-9.373c-.24.04-.53.116-.83.238zm2.495-.296c-.275-.005-.56 0-.832.004v9.43h.832v-9.433zm1.01.13l-.124-.035v9.337h.98v-11.968c-1.005 1.288-.857 2.666-.857 2.666zm1.345-3.193v12.497h.98v-13.19c-.387.212-.71.445-.98.693zm1.467-.935v13.43h.978v-13.765c-.32.083-.645.19-.978.335zm1.468-.444v13.875h.98V272.7c-.317.006-.64.028-.98.088zm1.467-.086v13.96h.978V272.85c-.306-.07-.628-.126-.98-.148zm24.338 6.814c-1.937-3.538-6.15-2.184-6.233-2.157l-.005.247v-.247h.005c-.013-1.09-.398-5.495-5.63-7.27-5.993-2.032-9.356 3.82-9.356 3.82-.14-.22-.746-.652-1.653-.938v13.69h19.57c1.895 0 5.258-3.573 3.3-7.146z" fill="#F8350F"/><path d="M491.69 278.673l.004-.246h-.005v.246zm-30.148 4.16c0 .772.118 1.42.306 1.968v-3.858c-.19.52-.306 1.142-.306 1.89zm1.13-2.83v5.812c.25.45.542.798.833 1.06v-7.804c-.302.234-.59.537-.832.933zm1.665-1.407v8.848c.334.166.57.22.57.22h.26v-9.304c-.24.04-.53.114-.83.236zm2.495-.296c-.275-.006-.56 0-.832.003v9.36h.832V278.3zm1.01.13l-.124-.035v9.27h.98v-11.88c-1.005 1.276-.857 2.644-.857 2.644zm1.345-3.172v12.405h.98V274.57c-.387.21-.71.443-.98.688zm1.467-.927v13.333h.978v-13.665c-.32.083-.645.19-.978.333zm1.468-.44v13.773h.98v-13.86c-.317.006-.64.027-.98.087zm1.467-.086v13.86h.978V273.95c-.306-.068-.628-.124-.98-.146zm24.338 6.764c-1.937-3.512-6.15-2.168-6.233-2.14l-.005.245v-.245h.005c-.013-1.083-.398-5.454-5.63-7.216-5.993-2.018-9.356 3.792-9.356 3.792-.14-.22-.746-.647-1.653-.93v13.59h19.57c1.895 0 5.258-3.55 3.3-7.096z" fill="#fff"/></svg>