<svg xmlns="http://www.w3.org/2000/svg" viewBox="282 372 48 48" enable-background="new 282 372 48 48"><linearGradient id="a" gradientUnits="userSpaceOnUse" x1="24.464" y1="770.423" x2="24.464" y2="766.657" gradientTransform="matrix(12.75 0 0 -12.75 -5.875 10194.875)"><stop offset="0" stop-color="#58BD93"/><stop offset="1" stop-color="#48A87D"/></linearGradient><path fill="url(#a)" d="M330.086 413.998c0 3.314-2.692 6.002-6.01 6.002H288.01c-3.318 0-6.01-2.688-6.01-6.002v-36.01c0-3.314 2.692-6.002 6.01-6.002h36.065c3.32 0 6.01 2.688 6.01 6.002v36.01z"/><path fill="#48A87D" d="M292.895 384.872s2.89 19.44 11.255 24.556c1.143.662 2.44.63 3.31-.12 3.49-3.01 7.105-8.078 8.128-10.425 1.922.183 3.247-.288 3.247-.288l-.012-3.71s-2.82.053-3.356.06c-4.09.062-6.912-4.9-5.25-9.093 1.153-2.904 3.18-.81 3.54.092.36.903.282 3.32-.244 5.096.64 1.495 4.12 2.29 4.913 1.038.977-2.746 1.404-7.69-1.13-10.253-1.67-1.69-5.864-2.55-8.933-.623-3.07 1.926-3.01 6.02-2.77 8.065.242 2.047.904 6.38 4.996 8.787.36.42-4.487 6.717-4.755 6.44-6.018-6.2-7.644-19.56-7.644-19.56l-5.295-.062z"/><path fill="#fff" d="M292.895 386.872s2.89 19.44 11.255 24.556c1.143.662 2.44.63 3.31-.12 3.49-3.01 7.105-8.078 8.128-10.425 1.922.183 3.247-.288 3.247-.288l-.012-3.71s-2.82.053-3.356.06c-4.09.062-6.912-4.9-5.25-9.093 1.153-2.904 3.18-.81 3.54.092.36.903.282 3.32-.244 5.096.64 1.495 4.12 2.29 4.913 1.038.977-2.746 1.404-7.69-1.13-10.253-1.67-1.69-5.864-2.55-8.933-.623-3.07 1.926-3.01 6.02-2.77 8.065.242 2.047.904 6.38 4.996 8.787.36.42-4.487 6.717-4.755 6.44-6.018-6.2-7.644-19.56-7.644-19.56l-5.295-.062z"/></svg>