<svg xmlns="http://www.w3.org/2000/svg" viewBox="176 76 48 48" enable-background="new 176 76 48 48"><linearGradient id="a" gradientUnits="userSpaceOnUse" x1="71.366" y1="132.875" x2="71.366" y2="121.375" gradientTransform="matrix(4.167 0 0 -4.167 -97.318 629.646)"><stop offset="0" stop-color="#fff"/><stop offset="1" stop-color="#EAEAEA"/></linearGradient><path fill="url(#a)" d="M224 117.928c0 3.307-2.683 5.99-5.99 5.99h-35.937c-3.308 0-5.99-2.684-5.99-5.99V81.99c0-3.307 2.682-5.99 5.99-5.99h35.938c3.308 0 5.99 2.683 5.99 5.99v35.938z"/><linearGradient id="b" gradientUnits="userSpaceOnUse" x1="199.348" y1="86.768" x2="199.348" y2="108.624"><stop offset="0" stop-color="#238FB8"/><stop offset=".332" stop-color="#1E87AF"/><stop offset=".86" stop-color="#107398"/><stop offset="1" stop-color="#0B6C91"/></linearGradient><path fill="url(#b)" d="M209.323 90.082s-2.876.387-1.828 3.74 3.003 3.142 2.234 7.33c-.77 4.19-2.44 7.473-2.44 7.473l-4.752-14.663h1.954v-.838h-8.31v.908h2.376l1.885 6.075-3.422 8.52-5.026-14.664h1.746v-.838l-4.947-.026s3.533-6.4 11.58-6.33c5.708.048 8.95 3.312 8.95 3.312z"/><linearGradient id="c" gradientUnits="userSpaceOnUse" x1="190.413" y1="94.427" x2="190.413" y2="112.816"><stop offset="0" stop-color="#238FB8"/><stop offset=".103" stop-color="#208AB3"/><stop offset=".66" stop-color="#11749A"/><stop offset="1" stop-color="#0B6C91"/></linearGradient><path fill="url(#c)" d="M188.04 94.427l6.152 18.39c0-.002-11.47-5.704-6.153-18.39z"/><linearGradient id="d" gradientUnits="userSpaceOnUse" x1="200.942" y1="102.48" x2="200.942" y2="114.318"><stop offset="0" stop-color="#187FA6"/><stop offset=".53" stop-color="#0F7298"/><stop offset="1" stop-color="#0B6C91"/></linearGradient><path fill="url(#d)" d="M201.054 102.48l-4.248 11.332s4.075 1.35 8.272-.357l-4.024-10.976z"/><linearGradient id="e" gradientUnits="userSpaceOnUse" x1="211.061" y1="95.375" x2="211.061" y2="111.945"><stop offset="0" stop-color="#238FB8"/><stop offset=".103" stop-color="#208AB3"/><stop offset=".66" stop-color="#11749A"/><stop offset="1" stop-color="#0B6C91"/></linearGradient><path fill="url(#e)" d="M213.13 95.375s.073.977-1.026 4.748c-1.1 3.77-4.06 11.822-4.06 11.822s8.892-5.502 5.087-16.57z"/><linearGradient id="f" gradientUnits="userSpaceOnUse" x1="200.364" y1="84.859" x2="200.364" y2="116.019"><stop offset="0" stop-color="#238FB8"/><stop offset=".332" stop-color="#1E87AF"/><stop offset=".86" stop-color="#107398"/><stop offset="1" stop-color="#0B6C91"/></linearGradient><path fill="url(#f)" d="M200.364 85.69c8.12 0 14.7 6.605 14.7 14.75 0 8.146-6.58 14.748-14.7 14.748-8.118 0-14.698-6.602-14.698-14.748 0-8.146 6.58-14.75 14.698-14.75m0-.83c-8.563 0-15.53 6.988-15.53 15.58 0 8.59 6.967 15.578 15.53 15.578s15.53-6.99 15.53-15.58-6.967-15.58-15.53-15.58z"/></svg>