<svg xmlns="http://www.w3.org/2000/svg" viewBox="-14 -14 48 48" enable-background="new -14 -14 48 48"><linearGradient id="a" gradientUnits="userSpaceOnUse" x1="90.053" y1="-99.76" x2="90.053" y2="-106.381" gradientTransform="matrix(7.234 0 0 -7.234 -641.5 -735.562)"><stop offset="0" stop-color="#4B71B8"/><stop offset="1" stop-color="#293F7E"/></linearGradient><path fill="url(#a)" d="M33.93 27.993c0 3.304-2.688 5.983-6 5.983H-8.083c-3.315 0-6-2.683-6-5.983v-35.92c0-3.31 2.686-5.99 6-5.99h36.01c3.313 0 6.003 2.682 6.003 5.99v35.92z"/><path fill="#fff" d="M25.613-4.557h-6.166c-3.662 0-7.732 1.535-7.732 6.835.02 1.845 0 3.613 0 5.603H7.48v6.73h4.367v19.37h8.02v-19.5h5.296l.48-6.618h-5.914s.015-2.946 0-3.8c0-2.093 2.183-1.974 2.31-1.974 1.043 0 3.06.003 3.58 0v-6.646h-.007z"/></svg>