<svg xmlns="http://www.w3.org/2000/svg" viewBox="0 0 48 48" enable-background="new 0 0 48 48"><linearGradient id="a" gradientUnits="userSpaceOnUse" x1="24" x2="24" y2="48.001"><stop offset="0" stop-color="#E16D35"/><stop offset="1" stop-color="#C93D1D"/></linearGradient><path fill-rule="evenodd" clip-rule="evenodd" fill="url(#a)" d="M48 42c0 3.313-2.687 6-6 6H6c-3.313 0-6-2.687-6-6V6c0-3.313 2.687-6 6-6h36c3.313 0 6 2.687 6 6v36z"/><path fill="#B7321C" d="M26.697 25.824c-.556-.24-1.108-.37-1.658-.395-.384-.013-1.032-.05-1.946-.108-.915-.06-1.634-.096-2.16-.107-.49-.012-.965-.03-1.425-.055-.46-.023-.865-.083-1.21-.18-.36-.083-.665-.24-.916-.475-.25-.232-.376-.57-.376-1.013 0-.43.15-.77.448-1.02s.585-.425.86-.52h2.17c1.672 0 3.14-.54 4.4-1.614 1.26-1.076 1.89-2.39 1.89-3.944 0-.597-.106-1.207-.32-1.83-.216-.62-.545-1.188-.987-1.702v-.107h4.158v-1.72H23.46c-.55-.168-1.09-.306-1.622-.413s-1.067-.162-1.604-.162c-1.948 0-3.547.538-4.795 1.614-1.25 1.076-1.875 2.45-1.875 4.123 0 1.112.316 2.09.95 2.93.633.844 1.523 1.534 2.67 2.072v.268c-.907.382-1.585.84-2.034 1.37-.447.533-.67 1.115-.67 1.75 0 .5.095.922.286 1.263.19.342.442.638.753.89.274.214.602.402.985.563.382.16.753.296 1.11.403v.25c-1.48.062-2.7.443-3.656 1.148-.957.705-1.435 1.667-1.435 2.887 0 1.507.664 2.65 1.99 3.434S17.843 36.6 20.52 36.6c1.637 0 3.012-.157 4.124-.468s2.067-.747 2.868-1.31c.753-.55 1.314-1.197 1.686-1.944.37-.747.556-1.544.556-2.393s-.138-1.56-.412-2.134c-.275-.572-.652-1.086-1.13-1.54-.454-.418-.96-.747-1.515-.986zm-4.16-6.355c-.555.83-1.347 1.245-2.374 1.245-.92 0-1.67-.418-2.25-1.255-.58-.836-.87-1.918-.87-3.245 0-.585.052-1.156.153-1.712s.27-1.03.51-1.425c.252-.43.578-.762.978-.995.4-.233.88-.35 1.443-.35 1.027 0 1.825.416 2.393 1.246.567.83.852 1.944.852 3.342 0 1.267-.278 2.316-.834 3.147zM25.3 34.222c-1.01.676-2.395 1.013-4.15 1.013-1.017 0-1.877-.1-2.583-.295-.705-.196-1.267-.45-1.685-.762-.442-.322-.753-.675-.932-1.058-.18-.382-.27-.782-.27-1.2 0-.933.273-1.694.817-2.286.543-.592 1.46-1.014 2.752-1.265 1.373 0 2.58.03 3.62.09s1.727.113 2.062.16c.633.155 1.105.448 1.417.88.31.43.465.978.465 1.648-.002 1.374-.506 2.4-1.516 3.075zm8.348-17.915v3.505h1.368v-3.505h3.49v-1.345h-3.49V11.45h-1.368v3.513h-3.49v1.345h3.49z"/><path fill="#fff" d="M26.697 27.2c-.556-.24-1.108-.372-1.658-.396-.384-.012-1.032-.048-1.946-.107-.915-.06-1.634-.096-2.16-.107-.49-.012-.965-.03-1.425-.055-.46-.023-.865-.083-1.21-.18-.36-.083-.665-.24-.916-.475-.25-.232-.376-.57-.376-1.013 0-.43.15-.77.448-1.02s.585-.425.86-.52h2.17c1.672 0 3.14-.54 4.4-1.614 1.26-1.076 1.89-2.39 1.89-3.944 0-.598-.106-1.208-.32-1.83-.216-.62-.545-1.19-.987-1.703v-.107h4.158v-1.72H23.46c-.55-.168-1.09-.306-1.622-.413s-1.067-.162-1.604-.162c-1.948 0-3.547.538-4.795 1.614-1.25 1.075-1.875 2.45-1.875 4.122 0 1.112.316 2.09.95 2.93.633.844 1.523 1.534 2.67 2.072v.27c-.907.38-1.585.84-2.034 1.37-.447.532-.67 1.114-.67 1.748 0 .502.095.923.286 1.264.19.34.442.637.753.888.274.215.602.403.985.564.382.16.753.296 1.11.403v.252c-1.48.06-2.7.442-3.656 1.147-.957.704-1.435 1.666-1.435 2.886 0 1.506.664 2.65 1.99 3.433s3.328 1.174 6.005 1.174c1.637 0 3.012-.156 4.124-.467s2.067-.747 2.868-1.31c.753-.55 1.314-1.197 1.686-1.944.37-.747.556-1.544.556-2.393s-.138-1.56-.412-2.134c-.275-.573-.652-1.087-1.13-1.542-.454-.417-.96-.746-1.515-.985zm-4.16-6.356c-.555.83-1.347 1.246-2.374 1.246-.92 0-1.67-.418-2.25-1.255-.58-.836-.87-1.918-.87-3.245 0-.585.052-1.156.153-1.712s.27-1.03.51-1.425c.252-.43.578-.762.978-.995.4-.233.88-.35 1.443-.35 1.027 0 1.825.416 2.393 1.246.567.83.852 1.945.852 3.343 0 1.267-.278 2.316-.834 3.147zM25.3 35.598c-1.01.676-2.395 1.013-4.15 1.013-1.017 0-1.877-.098-2.583-.294-.705-.197-1.267-.45-1.685-.763-.442-.322-.753-.675-.932-1.058-.18-.382-.27-.782-.27-1.2 0-.933.273-1.694.817-2.286.543-.593 1.46-1.015 2.752-1.266 1.373 0 2.58.03 3.62.09s1.727.114 2.062.16c.633.156 1.105.45 1.417.88.31.43.465.98.465 1.65-.002 1.373-.506 2.4-1.516 3.074zm8.348-17.915v3.505h1.368v-3.505h3.49v-1.345h-3.49v-3.513h-1.368v3.513h-3.49v1.345h3.49z"/></svg>