<svg xmlns="http://www.w3.org/2000/svg" viewBox="282 372 48 48" enable-background="new 282 372 48 48"><linearGradient id="a" gradientUnits="userSpaceOnUse" x1="24.464" y1="770.423" x2="24.464" y2="766.657" gradientTransform="matrix(12.75 0 0 -12.75 -5.875 10194.875)"><stop offset="0" stop-color="#517FA4"/><stop offset="1" stop-color="#467391"/></linearGradient><path fill="url(#a)" d="M330.086 413.998c0 3.314-2.692 6.002-6.01 6.002H288.01c-3.318 0-6.01-2.688-6.01-6.002v-36.01c0-3.314 2.692-6.002 6.01-6.002h36.065c3.32 0 6.01 2.688 6.01 6.002v36.01z"/><path fill="#467391" d="M316.917 380.37h-21.605c-2.013 0-3.644 1.633-3.644 3.645v21.866c0 2.014 1.63 3.645 3.644 3.645h21.605c2.013 0 3.644-1.63 3.644-3.644v-21.865c0-2.012-1.63-3.644-3.643-3.644zm-4.858 14.58c0 3.277-2.668 5.944-5.945 5.944-3.278 0-5.945-2.667-5.945-5.945 0-.987.245-1.914.67-2.734.993-1.905 2.982-3.212 5.275-3.212 2.292 0 4.282 1.306 5.273 3.212.426.82.67 1.747.67 2.733zm5.247 9.828c0 .825-.67 1.494-1.494 1.494h-19.27c-.824 0-1.493-.67-1.493-1.494v-12.563h2.465c-.275.863-.426 1.78-.426 2.733 0 4.976 4.047 9.024 9.023 9.024s9.024-4.048 9.024-9.024c0-.953-.15-1.87-.426-2.733h2.596v12.563zm0-17.266c0 .825-.67 1.494-1.494 1.494h-2.263c-.825 0-1.494-.67-1.494-1.494v-2.47c0-.654.424-1.204 1.01-1.406h2.746c.825 0 1.494.67 1.494 1.494v2.382z"/><path fill="#fff" d="M316.917 382.2h-21.605c-2.013 0-3.644 1.633-3.644 3.645v21.866c0 2.014 1.63 3.645 3.644 3.645h21.605c2.013 0 3.644-1.63 3.644-3.644v-21.865c0-2.012-1.63-3.644-3.643-3.644zm-4.858 14.58c0 3.277-2.668 5.944-5.945 5.944-3.278 0-5.945-2.667-5.945-5.945 0-.987.245-1.914.67-2.734.993-1.905 2.982-3.212 5.275-3.212 2.292 0 4.282 1.306 5.273 3.212.426.82.67 1.747.67 2.733zm5.247 9.828c0 .825-.67 1.494-1.494 1.494h-19.27c-.824 0-1.493-.67-1.493-1.494v-12.563h2.465c-.275.863-.426 1.78-.426 2.733 0 4.976 4.047 9.024 9.023 9.024s9.024-4.048 9.024-9.024c0-.953-.15-1.87-.426-2.733h2.596v12.563zm0-17.267c0 .826-.67 1.495-1.494 1.495h-2.263c-.825 0-1.494-.67-1.494-1.494v-2.468c0-.655.424-1.205 1.01-1.407h2.746c.825 0 1.494.67 1.494 1.494v2.38z"/></svg>