<svg xmlns="http://www.w3.org/2000/svg" viewBox="0 0 48 48" enable-background="new 0 0 48 48"><linearGradient id="a" gradientUnits="userSpaceOnUse" x1="24" x2="24" y2="48.001"><stop offset="0" stop-color="#41B8D0"/><stop offset="1" stop-color="#256FBB"/></linearGradient><path fill-rule="evenodd" clip-rule="evenodd" fill="url(#a)" d="M48 42c0 3.313-2.687 6-6 6H6c-3.313 0-6-2.687-6-6V6c0-3.313 2.687-6 6-6h36c3.313 0 6 2.687 6 6v36z"/><path fill="#257EAA" d="M13.237 33.89h4.988V16.843h-4.988v17.05zM15.73 9.967c-1.607 0-2.657 1.083-2.624 2.527-.033 1.378 1.018 2.494 2.593 2.494 1.64 0 2.69-1.116 2.69-2.494-.033-1.444-1.05-2.527-2.66-2.527zm15.982 7.115c-1.595 0-3.222-.328-4.956 2.36h-.1l-.086-2.598h-4.417c.065 1.41.074 3.518.074 5.52v11.53h4.988v-9.856c0-.46.065-.92.196-1.248.33-.92 1.15-1.87 2.528-1.87 1.805 0 2.527 1.41 2.527 3.478v9.495h4.988V23.774c.002-4.726-2.46-6.692-5.74-6.692z"/><path fill="#fff" d="M15.73 11.633c-1.607 0-2.657 1.083-2.624 2.527-.033 1.378 1.018 2.494 2.593 2.494 1.64 0 2.69-1.116 2.69-2.494-.033-1.444-1.05-2.527-2.66-2.527zm-2.493 23.924h4.988v-17.05h-4.988v17.05zm18.475-16.81c-1.595 0-3.222-.328-4.956 2.36h-.1l-.086-2.598h-4.417c.065 1.41.074 3.517.074 5.52v11.528h4.988v-9.854c0-.46.065-.92.196-1.248.33-.92 1.15-1.87 2.528-1.87 1.805 0 2.527 1.41 2.527 3.478v9.494h4.988v-10.12c.002-4.725-2.46-6.69-5.74-6.69z"/></svg>