<svg xmlns="http://www.w3.org/2000/svg" viewBox="456 256 48 48" enable-background="new 456 256 48 48"><linearGradient id="a" gradientUnits="userSpaceOnUse" x1="351.366" y1="312.875" x2="351.366" y2="301.375" gradientTransform="matrix(4.167 0 0 -4.167 -983.994 1559.654)"><stop offset="0" stop-color="#EC9728"/><stop offset="1" stop-color="#DF4C18"/></linearGradient><path fill="url(#a)" d="M504 297.928c0 3.307-2.683 5.99-5.99 5.99h-35.937c-3.308 0-5.99-2.684-5.99-5.99V261.99c0-3.307 2.682-5.99 5.99-5.99h35.938c3.308 0 5.99 2.683 5.99 5.99v35.938z"/><path d="M488.796 294.6h-20.963v-12.947h2.63v10.33h15.704v-10.33h2.63zm-16.494-7.323h12.09v2.614h-12.09zm.116-4.7l12.043 1.064-.23 2.607-12.042-1.064zm12.18.138l-11.637-3.268.715-2.518 11.636 3.268zm1.026-3.268l-10.477-6.006 1.312-2.266 10.477 6.005zm2.05-2.79l-6.996-9.812 2.143-1.514 6.997 9.814zm2.74-1.8l-2.144-11.84 2.586-.464 2.146 11.842z" fill="#DF4C18"/><path d="M488.796 296.59h-20.963v-12.946h2.63v10.33h15.704v-10.33h2.63zm-16.494-7.322h12.09v2.615h-12.09zm.116-4.7l12.043 1.063-.23 2.607-12.042-1.064zm12.18.137l-11.637-3.267.715-2.52 11.636 3.27zm1.026-3.267l-10.477-6.007 1.312-2.266 10.477 6.005zm2.05-2.79l-6.996-9.813 2.143-1.514 6.997 9.814zm2.74-1.8l-2.144-11.84 2.586-.465 2.146 11.842z" fill="#fff"/></svg>