<svg xmlns="http://www.w3.org/2000/svg" viewBox="0 0 48 48" enable-background="new 0 0 48 48"><linearGradient id="a" gradientUnits="userSpaceOnUse" x1="24" x2="24" y2="48.001"><stop offset="0" stop-color="#4BD0EF"/><stop offset="1" stop-color="#29AAE1"/></linearGradient><path fill-rule="evenodd" clip-rule="evenodd" fill="url(#a)" d="M48 42c0 3.313-2.687 6-6 6H6c-3.313 0-6-2.687-6-6V6c0-3.313 2.687-6 6-6h36c3.313 0 6 2.687 6 6v36z"/><path fill="#29AAE1" d="M21.957 22.4c.596-.303 1.047-.64 1.353-1.01.547-.658.822-1.528.822-2.612 0-1.05-.27-1.953-.814-2.708-.902-1.228-2.435-1.858-4.598-1.89h-8.574v17.742h7.994c.902 0 1.737-.08 2.507-.24.77-.162 1.438-.46 2.005-.892.502-.377.92-.843 1.256-1.396.526-.834.79-1.777.79-2.828 0-1.02-.23-1.886-.69-2.6-.463-.714-1.146-1.235-2.05-1.565zm-8.272-5.137h3.86c.85 0 1.548.092 2.096.277.636.265.954.81.954 1.637 0 .746-.24 1.266-.72 1.56-.482.292-1.107.438-1.877.438h-4.312v-3.912zm6.103 11.264c-.43.21-1.027.314-1.796.314h-4.307v-4.73h4.367c.76.01 1.353.11 1.773.302.753.345 1.13.98 1.13 1.9 0 1.093-.39 1.832-1.167 2.215zm19.697-4.804c-.16-1.03-.507-1.934-1.044-2.713-.597-.884-1.352-1.53-2.267-1.94-.916-.41-1.944-.616-3.086-.616-1.923 0-3.487.606-4.69 1.82-1.206 1.21-1.81 2.955-1.81 5.227 0 2.427.668 4.178 2.003 5.254 1.335 1.077 2.876 1.614 4.62 1.614 2.116 0 3.762-.638 4.938-1.913.756-.804 1.18-1.594 1.27-2.37h-3.502c-.204.384-.438.685-.705.9-.488.402-1.122.604-1.904.604-.736 0-1.367-.167-1.892-.495-.86-.53-1.318-1.454-1.37-2.77H39.6c.015-1.132-.022-2-.115-2.602zm-9.357.34c.125-.855.43-1.532.914-2.03.484-.5 1.167-.75 2.048-.75.81 0 1.486.235 2.033.707.547.47.852 1.163.914 2.072h-5.91z"/><path fill-rule="evenodd" clip-rule="evenodd" fill="#29AAE1" d="M27.77 14.325H38.3v1.708H27.77v-1.708z"/><path fill="#fff" d="M21.957 24.125c.596-.305 1.047-.642 1.353-1.01.547-.66.822-1.53.822-2.613 0-1.05-.27-1.953-.814-2.708-.902-1.228-2.435-1.858-4.598-1.89h-8.574v17.742h7.994c.902 0 1.737-.08 2.507-.24.77-.162 1.438-.46 2.005-.893.502-.376.92-.843 1.256-1.396.526-.834.79-1.777.79-2.83 0-1.018-.23-1.884-.69-2.598-.463-.714-1.146-1.236-2.05-1.565zm-8.272-5.14h3.86c.85 0 1.548.093 2.096.278.636.265.954.81.954 1.637 0 .746-.24 1.266-.72 1.56-.482.292-1.107.438-1.877.438h-4.312v-3.912zm6.103 11.266c-.43.21-1.027.314-1.796.314h-4.307v-4.73h4.367c.76.008 1.353.108 1.773.302.753.345 1.13.98 1.13 1.9 0 1.092-.39 1.83-1.167 2.215zm19.697-4.805c-.16-1.03-.507-1.933-1.044-2.712-.597-.884-1.352-1.53-2.267-1.94-.916-.41-1.944-.616-3.086-.616-1.923 0-3.487.606-4.69 1.82-1.206 1.21-1.81 2.955-1.81 5.226 0 2.426.668 4.177 2.003 5.253 1.335 1.077 2.876 1.615 4.62 1.615 2.116 0 3.762-.638 4.938-1.913.756-.803 1.18-1.593 1.27-2.37h-3.502c-.204.384-.438.685-.705.9-.488.402-1.122.604-1.904.604-.736 0-1.367-.164-1.892-.493-.86-.53-1.318-1.453-1.37-2.77H39.6c.015-1.13-.022-2-.115-2.602zm-9.357.34c.125-.853.43-1.53.914-2.03.484-.5 1.167-.75 2.048-.75.81 0 1.486.236 2.033.708.547.47.852 1.163.914 2.073h-5.91z"/><path fill-rule="evenodd" clip-rule="evenodd" fill="#fff" d="M27.77 16.048H38.3v1.708H27.77v-1.708z"/></svg>