<svg xmlns="http://www.w3.org/2000/svg" viewBox="456 256 48 48" enable-background="new 456 256 48 48"><linearGradient id="a" gradientUnits="userSpaceOnUse" x1="351.366" y1="312.875" x2="351.366" y2="301.375" gradientTransform="matrix(4.167 0 0 -4.167 -983.994 1559.654)"><stop offset="0" stop-color="#AF2300"/><stop offset="1" stop-color="#961900"/></linearGradient><path fill="url(#a)" d="M504 297.928c0 3.307-2.683 5.99-5.99 5.99h-35.937c-3.308 0-5.99-2.684-5.99-5.99V261.99c0-3.307 2.682-5.99 5.99-5.99h35.938c3.308 0 5.99 2.683 5.99 5.99v35.938z"/><path fill="#890000" d="M486.88 289.976c.598 1.568 1.998 2.333 3.687 2.81.148.786.376 1.495.35 2.455-3.82 1.218-7.012-.835-8.07-3.508-11.23 2.102-18.118-4.878-17.374-15.27.517-7.213 6.218-13.306 13.864-13.51 9.39-.253 14.39 6.112 14.39 14.39 0 5.662-2.826 10.34-6.846 12.634zm-7.545-23.34c-9.533.492-10.595 24.03 1.93 21.76-.263-1.667-1.776-2.085-3.334-2.456-.226-.65-.285-1.47-.35-2.28 3.284-1.445 6.088 1.175 7.545 2.105 3.038-6.275 2.84-19.574-5.79-19.13z"/><path fill="#fff" d="M486.88 291.942c.598 1.568 1.998 2.333 3.687 2.81.148.786.376 1.495.35 2.455-3.82 1.217-7.012-.836-8.07-3.51-11.23 2.103-18.118-4.877-17.374-15.268.517-7.215 6.218-13.308 13.864-13.513 9.39-.252 14.39 6.113 14.39 14.39 0 5.664-2.826 10.342-6.846 12.635zm-7.545-23.34c-9.533.492-10.595 24.03 1.93 21.76-.263-1.667-1.776-2.085-3.334-2.456-.226-.65-.285-1.47-.35-2.28 3.284-1.445 6.088 1.175 7.545 2.105 3.038-6.273 2.84-19.572-5.79-19.127z"/></svg>