<svg xmlns="http://www.w3.org/2000/svg" viewBox="0 0 40 40" enable-background="new 0 0 40 40"><linearGradient id="a" gradientUnits="userSpaceOnUse" x1="367.1" y1="-410.1" x2="367.1" y2="-458.1" gradientTransform="matrix(.833 0 0 -.833 -285.917 -341.75)"><stop offset="0" stop-color="#424140"/><stop offset="1" stop-color="#333332"/></linearGradient><path fill="url(#a)" d="M40 35c0 2.76-2.24 5-5 5H5c-2.76 0-5-2.24-5-5V5c0-2.76 2.24-5 5-5h30c2.76 0 5 2.24 5 5v30z"/><path fill="#30302F" d="M17.816 26.413l-2.927-11.44v9.18h.93v2.26H10.5v-2.26h.93V13.91h-.93v-2.26h7.316l2.394 10.055 2.128-10.056H29.5v2.26h-.93v10.242h.93v2.26h-5.786v-2.26h.93v-9.178l-2.925 11.44z"/><path fill="#fff" d="M17.816 27.35L14.89 15.913v9.178h.93v2.26H10.5v-2.26h.93V14.848h-.93v-2.26h7.316l2.394 10.056 2.128-10.057H29.5v2.26h-.93V25.09h.93v2.26h-5.786v-2.26h.93v-9.178l-2.925 11.44z"/></svg>