<svg xmlns="http://www.w3.org/2000/svg" viewBox="0 0 48 48" enable-background="new 0 0 48 48"><linearGradient id="a" gradientUnits="userSpaceOnUse" x1="24" x2="24" y2="48.001"><stop offset="0" stop-color="#FF8BD1"/><stop offset="1" stop-color="#FF4EAD"/></linearGradient><path fill-rule="evenodd" clip-rule="evenodd" fill="url(#a)" d="M48 42c0 3.313-2.687 6-6 6H6c-3.313 0-6-2.687-6-6V6c0-3.313 2.687-6 6-6h36c3.313 0 6 2.687 6 6v36z"/><path fill-rule="evenodd" clip-rule="evenodd" fill="#EA3FA1" d="M37.613 25.27s-13.398-2.017-20.257 7.613l-3.1-2.328s8.73-12.556 24.03-7.99l-.673 2.706zm-24.95-8.166s14.905 1.668 18.913-6.117l3.102 2.326S28.416 23.526 11.99 19.81l.673-2.706zM19.8 9.466s8.528 14.12 9.888 24.583l2.97-2.167s-.87-10.627-9.633-23.52L19.8 9.467z"/><path fill="#EA3FA1" d="M24.58 37.248c-8.437 0-15.3-6.862-15.3-15.3 0-8.435 6.863-15.3 15.3-15.3 8.436 0 15.3 6.865 15.3 15.3 0 8.438-6.864 15.3-15.3 15.3zm0-27.013c-6.46 0-11.715 5.255-11.715 11.714S18.12 33.66 24.58 33.66s11.713-5.254 11.713-11.713-5.255-11.715-11.714-11.715z"/><path fill-rule="evenodd" clip-rule="evenodd" fill="#fff" d="M37.613 27.27s-13.398-2.017-20.257 7.613l-3.1-2.328s8.73-12.556 24.03-7.99l-.673 2.706zm-24.95-8.166s14.905 1.668 18.913-6.117l3.102 2.326S28.416 25.526 11.99 21.81l.673-2.706zm7.138-7.638s8.528 14.12 9.888 24.583l2.97-2.167s-.87-10.627-9.633-23.52L19.8 11.467z"/><path fill="#fff" d="M24.58 39.248c-8.437 0-15.3-6.862-15.3-15.3 0-8.435 6.863-15.3 15.3-15.3 8.436 0 15.3 6.865 15.3 15.3 0 8.438-6.864 15.3-15.3 15.3zm0-27.013c-6.46 0-11.715 5.255-11.715 11.714S18.12 35.66 24.58 35.66s11.713-5.254 11.713-11.713-5.255-11.715-11.714-11.715z"/></svg>