<svg xmlns="http://www.w3.org/2000/svg" viewBox="176 76 48 48" enable-background="new 176 76 48 48"><linearGradient id="a" gradientUnits="userSpaceOnUse" x1="71.366" y1="132.875" x2="71.366" y2="121.375" gradientTransform="matrix(4.167 0 0 -4.167 -97.318 629.646)"><stop offset="0" stop-color="#F93C2D"/><stop offset="1" stop-color="#D32D20"/></linearGradient><path fill="url(#a)" d="M224 117.928c0 3.307-2.683 5.99-5.99 5.99h-35.937c-3.308 0-5.99-2.684-5.99-5.99V81.99c0-3.307 2.682-5.99 5.99-5.99h35.938c3.308 0 5.99 2.683 5.99 5.99v35.938z"/><path fill-rule="evenodd" clip-rule="evenodd" fill="#CD2D20" d="M193.948 112.906c-7.297-2.956-11-11.932-8.097-19.44 3.03-7.828 11.746-11.815 19.593-8.964 7.977 2.9 12.046 11.452 9.296 19.54-2.564 7.54-11.247 12.018-18.545 9.664l2.395-7.257c2.345 2.136 5.455 2.21 8.177.123 3.365-2.58 4.86-8.568 3.064-12.42-1.446-3.1-3.978-4.847-7.3-5.28-4.384-.574-8.258.532-10.974 4.257-1.955 2.682-2.363 5.655-.994 8.76.435.988 1.173 1.723 2.143 2.213.568.288.923.16 1.124-.48.268-.86.254-1.56-.3-2.402-1.148-1.75-.828-3.672-.066-5.493 1.803-4.308 8.004-5.83 11.474-2.852 1.14.98 1.71 2.257 1.808 3.71.146 2.203-.195 4.336-1.256 6.307-.63 1.17-1.495 2.086-2.842 2.413-2.047.495-3.567-.987-3.07-3.028.334-1.37.76-2.72 1.125-4.082.094-.35.144-.72.16-1.083.044-1.047-.447-1.932-1.23-2.274-.845-.368-1.95-.127-2.66.648-1.296 1.416-1.36 3.083-.98 4.863.124.58.14 1.235.016 1.815-.583 2.71-1.26 5.398-1.84 8.11-.18.83-.15 1.704-.222 2.63z"/><path fill-rule="evenodd" clip-rule="evenodd" fill="#fff" d="M193.948 114.906c-7.297-2.956-11-11.932-8.097-19.44 3.03-7.828 11.746-11.815 19.593-8.964 7.977 2.9 12.046 11.452 9.296 19.54-2.564 7.54-11.247 12.018-18.545 9.664l2.395-7.257c2.345 2.136 5.455 2.21 8.177.123 3.365-2.58 4.86-8.568 3.064-12.42-1.446-3.1-3.978-4.847-7.3-5.28-4.384-.574-8.258.532-10.974 4.257-1.955 2.682-2.363 5.655-.994 8.76.435.988 1.173 1.723 2.143 2.213.568.288.923.16 1.124-.48.268-.86.254-1.56-.3-2.402-1.148-1.75-.828-3.672-.066-5.493 1.803-4.308 8.004-5.83 11.474-2.852 1.14.98 1.71 2.257 1.808 3.71.146 2.204-.195 4.336-1.256 6.307-.63 1.17-1.495 2.086-2.842 2.413-2.047.495-3.567-.987-3.07-3.028.334-1.37.76-2.72 1.125-4.082.094-.35.144-.72.16-1.083.044-1.047-.447-1.932-1.23-2.274-.845-.368-1.95-.127-2.66.648-1.296 1.416-1.36 3.083-.98 4.863.124.58.14 1.235.016 1.815-.583 2.71-1.26 5.398-1.84 8.11-.18.83-.15 1.704-.222 2.63z"/></svg>