<svg xmlns="http://www.w3.org/2000/svg" viewBox="176 76 48 48" enable-background="new 176 76 48 48"><linearGradient id="a" gradientUnits="userSpaceOnUse" x1="71.366" y1="132.875" x2="71.366" y2="121.375" gradientTransform="matrix(4.167 0 0 -4.167 -97.318 629.646)"><stop offset="0" stop-color="#F5F5F5"/><stop offset=".276" stop-color="#eee"/><stop offset=".668" stop-color="#DCDCDC"/><stop offset=".829" stop-color="#D2D2D2"/></linearGradient><path fill="url(#a)" d="M224 117.928c0 3.307-2.683 5.99-5.99 5.99h-35.937c-3.308 0-5.99-2.684-5.99-5.99V81.99c0-3.307 2.682-5.99 5.99-5.99h35.938c3.308 0 5.99 2.683 5.99 5.99v35.938z"/><path opacity=".05" d="M220.654 121.186l-.305-.412c-.99-1.5-1.97-3.048-2.955-4.606-1.34-1.896-2.66-3.772-4.264-5.465-.732-.773-1.145-1.613-1.313-2.454-1.72-2.37-3.482-4.707-5.353-6.964-.15-.18-.28-.365-.4-.55-.394-.402-.774-.817-1.183-1.2l-.268-.28c-.658.56-1.3 1.147-1.91 1.78-2.292 2.36-5.246 1.678-7-.168l-.263-.01c-.912 1.022-1.82 2.048-2.718 3.096-1.676 1.96-3.278 3.98-4.892 5.987-.956 1.66-2.282 3.057-3.61 4.44-.123.377-.263.752-.49 1.057-.277.377-.562.748-.855 1.113l-.574.442c-1.147 2.01-2.526 3.826-4.052 5.543 1.038.86 2.37 1.38 3.824 1.38h35.938c1.358 0 2.593-.474 3.597-1.236-.41-.434-.728-.943-.953-1.494z"/><path opacity=".4" fill="#fff" d="M179.808 84.91c1.984 1.964 4 3.663 5.802 5.737l.176.15-.025.02c.235.274.463.557.69.846 3.333 3.1 7.496 5.558 10.63 8.936.82.883 1.917 2.05 2.866 3.348.228-.747.688-1.48 1.436-2.148 4.773-4.26 9.473-8.61 14.184-12.937 2.618-2.405 5.312-5.342 8.413-7.288-.215-3.112-2.803-5.574-5.97-5.574h-35.937c-3.08 0-5.612 2.325-5.95 5.313 1.292 1.04 2.356 2.28 3.685 3.596z"/><path fill="#BCBCBC" d="M176.115 81.374L200 101.96l23.97-20.586L200 105.25zm45.557 41.344l-17.484-21.968 1.78-1.656zm-43.326 0l17.685-21.906-1.655-1.718z"/></svg>