<svg xmlns="http://www.w3.org/2000/svg" viewBox="0 0 48 48" enable-background="new 0 0 48 48"><linearGradient id="a" gradientUnits="userSpaceOnUse" x1="24" x2="24" y2="48.001"><stop offset="0" stop-color="#4BD0EF"/><stop offset="1" stop-color="#29AAE1"/></linearGradient><path fill-rule="evenodd" clip-rule="evenodd" fill="url(#a)" d="M48 42c0 3.313-2.687 6-6 6H6c-3.313 0-6-2.687-6-6V6c0-3.313 2.687-6 6-6h36c3.313 0 6 2.687 6 6v36z"/><path fill="#29AAE1" d="M40.23 13.413c-1.12.497-2.322.833-3.587.984 1.29-.774 2.28-1.998 2.747-3.457-1.206.716-2.543 1.236-3.968 1.516-1.14-1.214-2.763-1.972-4.56-1.972-3.45 0-6.246 2.796-6.246 6.247 0 .49.055.967.16 1.425-5.19-.26-9.794-2.75-12.875-6.528-.537.923-.845 1.996-.845 3.14 0 2.168 1.103 4.08 2.78 5.2-1.025-.032-1.988-.313-2.83-.78v.078c0 3.026 2.152 5.55 5.01 6.125-.525.143-1.076.22-1.646.22-.404 0-.795-.04-1.177-.11.795 2.48 3.102 4.286 5.835 4.337-2.138 1.675-4.832 2.675-7.758 2.675-.504 0-1.002-.03-1.49-.09 2.764 1.774 6.047 2.81 9.575 2.81 11.49 0 17.774-9.52 17.774-17.775 0-.27-.007-.54-.02-.81 1.224-.88 2.284-1.98 3.12-3.234z"/><path fill="#fff" d="M40.23 14.74c-1.12.496-2.322.832-3.587.983 1.29-.773 2.28-1.998 2.747-3.456-1.206.716-2.543 1.236-3.968 1.516-1.14-1.214-2.763-1.972-4.56-1.972-3.45 0-6.246 2.797-6.246 6.248 0 .49.055.966.16 1.424-5.19-.26-9.794-2.748-12.875-6.527-.537.923-.845 1.996-.845 3.14 0 2.168 1.103 4.08 2.78 5.2-1.025-.032-1.988-.313-2.83-.78v.078c0 3.027 2.152 5.55 5.01 6.125-.525.144-1.076.22-1.646.22-.404 0-.795-.04-1.177-.11.795 2.48 3.102 4.286 5.835 4.337-2.138 1.676-4.832 2.675-7.758 2.675-.504 0-1.002-.03-1.49-.09 2.764 1.774 6.047 2.81 9.575 2.81 11.49 0 17.774-9.52 17.774-17.775 0-.27-.007-.54-.02-.808 1.224-.885 2.284-1.985 3.12-3.238z"/></svg>