<svg xmlns="http://www.w3.org/2000/svg" viewBox="0 0 48 48" enable-background="new 0 0 48 48"><linearGradient id="a" gradientUnits="userSpaceOnUse" x1="24" x2="24" y2="48.001"><stop offset="0" stop-color="#9FE8FF"/><stop offset="1" stop-color="#59D6FF"/></linearGradient><path fill-rule="evenodd" clip-rule="evenodd" fill="url(#a)" d="M48 42c0 3.313-2.687 6-6 6H6c-3.313 0-6-2.687-6-6V6c0-3.313 2.687-6 6-6h36c3.313 0 6 2.687 6 6v36z"/><path fill-rule="evenodd" clip-rule="evenodd" fill="#B0F0FF" d="M27.675 19.093s-3.847-.246-1.063-2.62c2.782-2.372 7.037-3.436 10.637-.98 3.6 2.454 3.683 6.055 0 5.645 0 0-1.882 5.483-6.138 10.066-4.255 4.583-9.083 11.946-13.338 3.764-4.255-8.183-2.864-10.31-4.992-14.238 0 0-8.51 1.555-3.846-1.8C13.6 15.574 19.083 12.71 19.41 16.8c.328 4.092 1.8 13.748 4.5 13.174 2.702-.572 5.484-6.382 5.73-8.673.245-2.292-1.965-2.21-1.965-2.21z"/><path fill-rule="evenodd" clip-rule="evenodd" fill="#212121" d="M27.675 17.093s-3.847-.246-1.063-2.62c2.782-2.372 7.037-3.436 10.637-.98 3.6 2.454 3.683 6.055 0 5.645 0 0-1.882 5.483-6.138 10.066-4.255 4.583-9.083 11.946-13.338 3.764-4.255-8.183-2.864-10.31-4.992-14.238 0 0-8.51 1.555-3.846-1.8C13.6 13.574 19.083 10.71 19.41 14.8c.328 4.092 1.8 13.748 4.5 13.174 2.702-.572 5.484-6.382 5.73-8.673.245-2.292-1.965-2.21-1.965-2.21z"/></svg>