<svg xmlns="http://www.w3.org/2000/svg" viewBox="0 0 48 48" enable-background="new 0 0 48 48"><linearGradient id="a" gradientUnits="userSpaceOnUse" x1="24" x2="24" y2="48.001"><stop offset="0" stop-color="#FF8BD1"/><stop offset="1" stop-color="#FF4EAD"/></linearGradient><path fill-rule="evenodd" clip-rule="evenodd" fill="url(#a)" d="M48 42c0 3.313-2.687 6-6 6h-36c-3.313 0-6-2.687-6-6v-36c0-3.313 2.687-6 6-6h36c3.313 0 6 2.687 6 6v36z"/><path fill-rule="evenodd" clip-rule="evenodd" fill="#EA3FA1" d="M37.613 25.271s-13.398-2.018-20.257 7.612l-3.101-2.328s8.732-12.556 24.032-7.99l-.674 2.706zm-24.95-8.167s14.905 1.668 18.913-6.117l3.102 2.326s-6.262 10.213-22.688 6.498l.673-2.707zm7.138-7.638s8.527 14.12 9.887 24.583l2.97-2.166s-.871-10.627-9.633-23.519l-3.224 1.102z"/><path fill="#EA3FA1" d="M24.579 37.248c-8.436 0-15.3-6.862-15.3-15.299 0-8.436 6.864-15.3 15.3-15.3 8.437 0 15.3 6.864 15.3 15.3 0 8.437-6.863 15.299-15.3 15.299zm0-27.013c-6.459 0-11.714 5.255-11.714 11.714s5.254 11.713 11.714 11.713 11.714-5.254 11.714-11.713-5.255-11.714-11.714-11.714z"/><path fill-rule="evenodd" clip-rule="evenodd" fill="#fff" d="M37.613 27.271s-13.398-2.018-20.257 7.612l-3.101-2.328s8.732-12.556 24.032-7.99l-.674 2.706zm-24.95-8.167s14.905 1.668 18.913-6.117l3.102 2.326s-6.262 10.213-22.688 6.498l.673-2.707zm7.138-7.638s8.527 14.12 9.887 24.583l2.97-2.166s-.871-10.627-9.633-23.519l-3.224 1.102z"/><path fill="#fff" d="M24.579 39.248c-8.436 0-15.3-6.862-15.3-15.299 0-8.436 6.864-15.3 15.3-15.3 8.437 0 15.3 6.864 15.3 15.3 0 8.437-6.863 15.299-15.3 15.299zm0-27.013c-6.459 0-11.714 5.255-11.714 11.714s5.254 11.713 11.714 11.713 11.714-5.254 11.714-11.713-5.255-11.714-11.714-11.714z"/></svg>