<svg xmlns="http://www.w3.org/2000/svg" viewBox="456 256 48 48" enable-background="new 456 256 48 48"><linearGradient id="a" gradientUnits="userSpaceOnUse" x1="351.366" y1="312.875" x2="351.366" y2="301.375" gradientTransform="matrix(4.167 0 0 -4.167 -983.994 1559.654)"><stop offset="0" stop-color="#AF2300"/><stop offset="1" stop-color="#961900"/></linearGradient><path fill="url(#a)" d="M504 297.928c0 3.307-2.683 5.989-5.989 5.989h-35.938c-3.308 0-5.99-2.683-5.99-5.989v-35.938c0-3.307 2.682-5.99 5.99-5.99h35.938c3.307 0 5.989 2.683 5.989 5.99v35.938z"/><path fill="#890000" d="M486.881 289.976c.597 1.568 1.997 2.333 3.686 2.809.148.787.376 1.496.351 2.456-3.821 1.217-7.013-.836-8.072-3.509-11.228 2.102-18.117-4.878-17.373-15.269.517-7.214 6.218-13.307 13.864-13.512 9.39-.252 14.389 6.113 14.389 14.39 0 5.663-2.825 10.342-6.845 12.635zm-7.546-23.34c-9.533.492-10.595 24.029 1.93 21.761-.263-1.668-1.776-2.086-3.334-2.457-.227-.65-.286-1.469-.351-2.281 3.284-1.444 6.088 1.176 7.545 2.106 3.038-6.275 2.841-19.574-5.79-19.129z"/><path fill="#fff" d="M486.881 291.942c.597 1.568 1.997 2.333 3.686 2.809.148.787.376 1.496.351 2.456-3.821 1.217-7.013-.836-8.072-3.509-11.228 2.102-18.117-4.878-17.373-15.269.517-7.214 6.218-13.307 13.864-13.512 9.39-.252 14.389 6.113 14.389 14.39 0 5.664-2.825 10.342-6.845 12.635zm-7.546-23.339c-9.533.491-10.595 24.029 1.93 21.76-.263-1.668-1.776-2.086-3.334-2.457-.227-.65-.286-1.469-.351-2.281 3.284-1.444 6.088 1.176 7.545 2.106 3.038-6.274 2.841-19.573-5.79-19.128z"/></svg>