<svg xmlns="http://www.w3.org/2000/svg" viewBox="282 372 48 48" enable-background="new 282 372 48 48"><linearGradient id="a" gradientUnits="userSpaceOnUse" x1="24.464" y1="770.423" x2="24.464" y2="766.657" gradientTransform="matrix(12.75 0 0 -12.75 -5.875 10194.875)"><stop offset="0" stop-color="#58BD93"/><stop offset="1" stop-color="#48A87D"/></linearGradient><path fill="url(#a)" d="M330.086 413.998c0 3.314-2.692 6.002-6.011 6.002h-36.064c-3.319 0-6.011-2.688-6.011-6.002v-36.01c0-3.314 2.692-6.002 6.011-6.002h36.064c3.319 0 6.011 2.688 6.011 6.002v36.01z"/><path fill="#48A87D" d="M292.895 384.872s2.889 19.44 11.255 24.556c1.143.662 2.439.631 3.31-.12 3.491-3.01 7.105-8.078 8.128-10.425 1.922.183 3.247-.288 3.247-.288l-.012-3.71s-2.819.053-3.356.061c-4.09.061-6.912-4.901-5.249-9.094 1.152-2.904 3.178-.811 3.539.092.361.903.282 3.321-.244 5.096.641 1.495 4.12 2.289 4.913 1.038.977-2.746 1.404-7.69-1.129-10.253-1.671-1.691-5.865-2.549-8.934-.623-3.07 1.926-3.01 6.019-2.769 8.065.241 2.047.903 6.38 4.995 8.787.361.421-4.486 6.717-4.754 6.44-6.018-6.199-7.644-19.561-7.644-19.561l-5.296-.061z"/><path fill="#fff" d="M292.895 386.872s2.889 19.44 11.255 24.556c1.143.662 2.439.631 3.31-.12 3.491-3.01 7.105-8.078 8.128-10.425 1.922.183 3.247-.288 3.247-.288l-.012-3.71s-2.819.053-3.356.061c-4.09.061-6.912-4.901-5.249-9.094 1.152-2.904 3.178-.811 3.539.092.361.903.282 3.321-.244 5.096.641 1.495 4.12 2.289 4.913 1.038.977-2.746 1.404-7.69-1.129-10.253-1.671-1.691-5.865-2.549-8.934-.623-3.07 1.926-3.01 6.019-2.769 8.065.241 2.047.903 6.38 4.995 8.787.361.421-4.486 6.717-4.754 6.44-6.018-6.199-7.644-19.561-7.644-19.561l-5.296-.061z"/></svg>