<svg xmlns="http://www.w3.org/2000/svg" viewBox="456 256 48 48" enable-background="new 456 256 48 48"><linearGradient id="a" gradientUnits="userSpaceOnUse" x1="480.042" y1="303.917" x2="480.042" y2="256"><stop offset="0" stop-color="#F8350F"/><stop offset="1" stop-color="#F79610"/></linearGradient><path fill="url(#a)" d="M504 297.928c0 3.307-2.683 5.989-5.989 5.989h-35.938c-3.308 0-5.99-2.683-5.99-5.989v-35.938c0-3.307 2.682-5.99 5.99-5.99h35.938c3.307 0 5.989 2.683 5.989 5.99v35.938z"/><path d="M491.689 277.607l.005-.248-.005.001v.247zm-30.147 4.19c0 .778.118 1.431.306 1.982v-3.889c-.191.526-.306 1.153-.306 1.907zm1.131-2.851v5.855c.25.453.541.804.832 1.066v-7.86c-.302.235-.59.541-.832.939zm1.664-1.418v8.913c.334.168.571.222.571.222h.26v-9.373c-.242.041-.531.116-.831.238zm2.495-.297c-.275-.006-.561 0-.832.003v9.429h.832v-9.432zm1.009.129l-.123-.035v9.337h.979v-11.968c-1.004 1.288-.856 2.666-.856 2.666zm1.346-3.193v12.497h.979v-13.189c-.386.211-.71.444-.979.692zm1.467-.935v13.431h.978v-13.766c-.319.083-.645.191-.978.335zm1.468-.444v13.875h.979v-13.963c-.316.006-.64.028-.979.088zm1.467-.086v13.961h.979v-13.814c-.306-.069-.628-.125-.979-.147zm24.339 6.814c-1.937-3.538-6.15-2.184-6.233-2.157l-.005.248v-.247l.005-.001c-.013-1.089-.398-5.494-5.63-7.269-5.993-2.032-9.356 3.82-9.356 3.82-.138-.221-.745-.652-1.652-.938v13.691h19.569c1.896 0 5.259-3.574 3.302-7.147z" fill="#F8350F"/><path d="M491.689 278.673l.005-.246-.005.001v.245zm-30.147 4.16c0 .772.118 1.42.306 1.968v-3.859c-.191.52-.306 1.142-.306 1.891zm1.131-2.83v5.812c.25.45.541.798.832 1.059v-7.803c-.302.233-.59.536-.832.932zm1.664-1.407v8.848c.334.166.571.22.571.22h.26v-9.304c-.242.039-.531.114-.831.236zm2.495-.296c-.275-.006-.561 0-.832.003v9.36h.832v-9.363zm1.009.129l-.123-.034v9.269h.979v-11.88c-1.004 1.277-.856 2.645-.856 2.645zm1.346-3.171v12.405h.979v-13.092c-.386.21-.71.442-.979.687zm1.467-.927v13.332h.978v-13.665c-.319.083-.645.19-.978.333zm1.468-.441v13.773h.979v-13.86c-.316.006-.64.027-.979.087zm1.467-.086v13.859h.979v-13.713c-.306-.068-.628-.124-.979-.146zm24.339 6.764c-1.937-3.512-6.15-2.168-6.233-2.141l-.005.246v-.245l.005-.001c-.013-1.082-.398-5.453-5.63-7.215-5.993-2.018-9.356 3.792-9.356 3.792-.138-.22-.745-.647-1.652-.931v13.59h19.569c1.896 0 5.259-3.548 3.302-7.095z" fill="#fff"/></svg>