<svg xmlns="http://www.w3.org/2000/svg" viewBox="0 0 40 40" enable-background="new 0 0 40 40"><linearGradient id="a" gradientUnits="userSpaceOnUse" x1="367.1" y1="-410.1" x2="367.1" y2="-458.1" gradientTransform="matrix(.833 0 0 -.833 -285.917 -341.75)"><stop offset="0" stop-color="#424140"/><stop offset="1" stop-color="#333332"/></linearGradient><path fill="url(#a)" d="M40 35c0 2.761-2.239 5-5 5h-30c-2.761 0-5-2.239-5-5v-30c0-2.761 2.239-5 5-5h30c2.761 0 5 2.239 5 5v30z"/><path fill="#30302F" d="M17.816 26.413l-2.927-11.439v9.178h.932v2.261h-5.321v-2.261h.931v-10.242h-.931v-2.261h7.316l2.394 10.056 2.128-10.056h7.162v2.261h-.931v10.242h.931v2.261h-5.786v-2.261h.931v-9.178l-2.926 11.439z"/><path fill="#fff" d="M17.816 27.351l-2.927-11.439v9.178h.932v2.261h-5.321v-2.261h.931v-10.242h-.931v-2.261h7.316l2.394 10.057 2.128-10.057h7.162v2.261h-.931v10.242h.931v2.261h-5.786v-2.261h.931v-9.178l-2.926 11.439z"/></svg>