<svg xmlns="http://www.w3.org/2000/svg" viewBox="282 372 48 48" enable-background="new 282 372 48 48"><linearGradient id="a" gradientUnits="userSpaceOnUse" x1="24.464" y1="770.423" x2="24.464" y2="766.657" gradientTransform="matrix(12.75 0 0 -12.75 -5.875 10194.875)"><stop offset="0" stop-color="#517FA4"/><stop offset="1" stop-color="#467391"/></linearGradient><path fill="url(#a)" d="M330.086 413.998c0 3.314-2.692 6.002-6.011 6.002h-36.064c-3.319 0-6.011-2.688-6.011-6.002v-36.01c0-3.314 2.692-6.002 6.011-6.002h36.064c3.319 0 6.011 2.688 6.011 6.002v36.01z"/><path fill="#467391" d="M316.917 380.371h-21.605c-2.013 0-3.644 1.632-3.644 3.644v21.866c0 2.013 1.631 3.644 3.644 3.644h21.605c2.013 0 3.644-1.631 3.644-3.644v-21.866c0-2.012-1.631-3.644-3.644-3.644zm-4.858 14.578c0 3.278-2.667 5.945-5.944 5.945-3.278 0-5.945-2.667-5.945-5.945 0-.986.245-1.913.671-2.733.992-1.905 2.981-3.212 5.274-3.212 2.292 0 4.282 1.306 5.273 3.212.426.819.671 1.747.671 2.733zm5.248 9.829c0 .825-.669 1.494-1.494 1.494h-19.269c-.825 0-1.494-.669-1.494-1.494v-12.563h2.465c-.275.863-.426 1.78-.426 2.733 0 4.976 4.048 9.024 9.024 9.024 4.976 0 9.024-4.048 9.024-9.024 0-.953-.151-1.87-.426-2.733h2.595v12.563zm0-17.266c0 .825-.669 1.494-1.494 1.494h-2.263c-.825 0-1.494-.669-1.494-1.494v-2.469c0-.655.424-1.205 1.011-1.407h2.745c.825 0 1.494.669 1.494 1.494v2.382z"/><path fill="#fff" d="M316.917 382.201h-21.605c-2.013 0-3.644 1.632-3.644 3.644v21.866c0 2.013 1.631 3.644 3.644 3.644h21.605c2.013 0 3.644-1.631 3.644-3.644v-21.866c0-2.012-1.631-3.644-3.644-3.644zm-4.858 14.578c0 3.278-2.667 5.945-5.944 5.945-3.278 0-5.945-2.667-5.945-5.945 0-.986.245-1.913.671-2.733.992-1.905 2.981-3.212 5.274-3.212 2.292 0 4.282 1.306 5.273 3.212.426.819.671 1.747.671 2.733zm5.248 9.829c0 .825-.669 1.494-1.494 1.494h-19.269c-.825 0-1.494-.669-1.494-1.494v-12.563h2.465c-.275.863-.426 1.78-.426 2.733 0 4.976 4.048 9.024 9.024 9.024 4.976 0 9.024-4.048 9.024-9.024 0-.953-.151-1.87-.426-2.733h2.595v12.563zm0-17.267c0 .825-.669 1.494-1.494 1.494h-2.263c-.825 0-1.494-.669-1.494-1.494v-2.469c0-.655.424-1.205 1.011-1.407h2.745c.825 0 1.494.669 1.494 1.494v2.382z"/></svg>