<svg xmlns="http://www.w3.org/2000/svg" viewBox="176 76 48 48" enable-background="new 176 76 48 48"><linearGradient id="a" gradientUnits="userSpaceOnUse" x1="71.366" y1="132.875" x2="71.366" y2="121.375" gradientTransform="matrix(4.167 0 0 -4.167 -97.318 629.646)"><stop offset="0" stop-color="#fff"/><stop offset="1" stop-color="#EAEAEA"/></linearGradient><path fill="url(#a)" d="M224 117.928c0 3.307-2.683 5.989-5.989 5.989h-35.938c-3.308 0-5.99-2.683-5.99-5.989v-35.938c0-3.307 2.682-5.99 5.99-5.99h35.938c3.307 0 5.989 2.683 5.989 5.99v35.938z"/><linearGradient id="b" gradientUnits="userSpaceOnUse" x1="199.348" y1="86.768" x2="199.348" y2="108.624"><stop offset="0" stop-color="#238FB8"/><stop offset=".332" stop-color="#1E87AF"/><stop offset=".86" stop-color="#107398"/><stop offset="1" stop-color="#0B6C91"/></linearGradient><path fill="url(#b)" d="M209.323 90.082s-2.876.387-1.828 3.739 3.003 3.143 2.234 7.332c-.769 4.19-2.44 7.472-2.44 7.472l-4.751-14.663h1.954v-.838h-8.309v.908h2.375l1.885 6.075-3.422 8.519-5.027-14.663h1.746v-.838l-4.947-.026s3.533-6.398 11.58-6.328c5.708.047 8.95 3.311 8.95 3.311z"/><linearGradient id="c" gradientUnits="userSpaceOnUse" x1="190.413" y1="94.427" x2="190.413" y2="112.816"><stop offset="0" stop-color="#238FB8"/><stop offset=".103" stop-color="#208AB3"/><stop offset=".66" stop-color="#11749A"/><stop offset="1" stop-color="#0B6C91"/></linearGradient><path fill="url(#c)" d="M188.039 94.427l6.153 18.389c0-.001-11.469-5.703-6.153-18.389z"/><linearGradient id="d" gradientUnits="userSpaceOnUse" x1="200.942" y1="102.48" x2="200.942" y2="114.318"><stop offset="0" stop-color="#187FA6"/><stop offset=".53" stop-color="#0F7298"/><stop offset="1" stop-color="#0B6C91"/></linearGradient><path fill="url(#d)" d="M201.054 102.479l-4.248 11.333s4.075 1.349 8.272-.357l-4.024-10.976z"/><linearGradient id="e" gradientUnits="userSpaceOnUse" x1="211.061" y1="95.375" x2="211.061" y2="111.945"><stop offset="0" stop-color="#238FB8"/><stop offset=".103" stop-color="#208AB3"/><stop offset=".66" stop-color="#11749A"/><stop offset="1" stop-color="#0B6C91"/></linearGradient><path fill="url(#e)" d="M213.131 95.375s.072.977-1.027 4.748c-1.1 3.771-4.059 11.822-4.059 11.822s8.891-5.502 5.086-16.57z"/><linearGradient id="f" gradientUnits="userSpaceOnUse" x1="200.364" y1="84.859" x2="200.364" y2="116.019"><stop offset="0" stop-color="#238FB8"/><stop offset=".332" stop-color="#1E87AF"/><stop offset=".86" stop-color="#107398"/><stop offset="1" stop-color="#0B6C91"/></linearGradient><path fill="url(#f)" d="M200.364 85.691c8.119 0 14.699 6.604 14.699 14.749 0 8.146-6.58 14.748-14.699 14.748-8.118 0-14.698-6.602-14.698-14.748 0-8.146 6.58-14.749 14.698-14.749m0-.832c-8.563 0-15.53 6.989-15.53 15.58 0 8.59 6.967 15.579 15.53 15.579s15.53-6.989 15.53-15.579-6.967-15.58-15.53-15.58z"/></svg>