<svg xmlns="http://www.w3.org/2000/svg" viewBox="176 76 48 48" enable-background="new 176 76 48 48"><linearGradient id="a" gradientUnits="userSpaceOnUse" x1="71.366" y1="132.875" x2="71.366" y2="121.375" gradientTransform="matrix(4.167 0 0 -4.167 -97.318 629.646)"><stop offset="0" stop-color="#F5F5F5"/><stop offset=".276" stop-color="#eee"/><stop offset=".668" stop-color="#DCDCDC"/><stop offset=".829" stop-color="#D2D2D2"/></linearGradient><path fill="url(#a)" d="M224 117.928c0 3.307-2.683 5.989-5.989 5.989h-35.938c-3.308 0-5.99-2.683-5.99-5.989v-35.938c0-3.307 2.682-5.99 5.99-5.99h35.938c3.307 0 5.989 2.683 5.989 5.99v35.938z"/><path opacity=".05" d="M220.654 121.186l-.305-.412c-.99-1.499-1.969-3.048-2.954-4.606-1.339-1.896-2.66-3.772-4.264-5.465-.733-.773-1.146-1.613-1.314-2.454-1.72-2.369-3.482-4.706-5.353-6.963-.149-.181-.28-.365-.4-.551-.394-.401-.774-.816-1.183-1.199l-.269-.28c-.658.56-1.299 1.147-1.911 1.779-2.291 2.361-5.245 1.679-7-.167l-.262-.009c-.911 1.021-1.82 2.047-2.717 3.095-1.676 1.96-3.278 3.979-4.892 5.987-.956 1.659-2.282 3.056-3.609 4.44-.124.376-.264.751-.49 1.056-.278.377-.563.748-.856 1.113l-.574.442c-1.148 2.009-2.527 3.826-4.053 5.543 1.038.861 2.37 1.381 3.824 1.381h35.938c1.358 0 2.593-.475 3.597-1.237-.411-.433-.728-.942-.953-1.493z"/><path opacity=".4" fill="#fff" d="M179.808 84.909c1.984 1.965 4 3.664 5.802 5.738l.176.151-.025.019c.234.274.462.557.688.846 3.334 3.101 7.497 5.558 10.63 8.936.82.884 1.918 2.05 2.867 3.349.228-.747.688-1.481 1.436-2.148 4.773-4.259 9.473-8.611 14.184-12.937 2.618-2.405 5.312-5.342 8.413-7.288-.214-3.112-2.802-5.574-5.968-5.574h-35.938c-3.079 0-5.612 2.324-5.949 5.312 1.291 1.04 2.355 2.279 3.684 3.596z"/><path fill="#BCBCBC" d="M176.115 81.374l23.885 20.585 23.969-20.585-23.969 23.876zm45.557 41.344l-17.484-21.968 1.781-1.656zm-43.326 0l17.685-21.906-1.656-1.718z"/></svg>