<svg xmlns="http://www.w3.org/2000/svg" viewBox="0 0 48 48" enable-background="new 0 0 48 48"><linearGradient id="a" gradientUnits="userSpaceOnUse" x1="24" x2="24" y2="48.001"><stop offset="0" stop-color="#F2A833"/><stop offset="1" stop-color="#E8621D"/></linearGradient><path fill-rule="evenodd" clip-rule="evenodd" fill="url(#a)" d="M48 42c0 3.313-2.687 6-6 6h-36c-3.313 0-6-2.687-6-6v-36c0-3.313 2.687-6 6-6h36c3.313 0 6 2.687 6 6v36z"/><path fill="#E8621D" d="M10.016 8.494s27.276-1.343 29.426 27.41h-5.509s1.076-20.959-23.917-22.841v-4.569zm0 9.54s15.99-.538 19.08 17.869h-5.508s-.671-10.883-13.572-13.302v-4.567zm2.994 11.987c1.928 0 3.494 1.563 3.494 3.494 0 1.928-1.566 3.493-3.494 3.493-1.93 0-3.494-1.564-3.494-3.493 0-1.93 1.564-3.494 3.494-3.494z"/><path fill="#fff" d="M10.016 9.597s27.276-1.343 29.426 27.41h-5.509s1.076-20.96-23.917-22.842v-4.568zm0 9.541s15.99-.539 19.08 17.869h-5.508s-.671-10.882-13.572-13.304v-4.565zm2.994 11.987c1.928 0 3.494 1.562 3.494 3.494 0 1.928-1.566 3.493-3.494 3.493-1.93 0-3.494-1.564-3.494-3.493 0-1.931 1.564-3.494 3.494-3.494z"/></svg>