<svg xmlns="http://www.w3.org/2000/svg" viewBox="0 0 48 48" enable-background="new 0 0 48 48"><linearGradient id="a" gradientUnits="userSpaceOnUse" x1="24" x2="24" y2="48.001"><stop offset="0" stop-color="#4BD0EF"/><stop offset="1" stop-color="#29AAE1"/></linearGradient><path fill-rule="evenodd" clip-rule="evenodd" fill="url(#a)" d="M48 42c0 3.313-2.687 6-6 6h-36c-3.313 0-6-2.687-6-6v-36c0-3.313 2.687-6 6-6h36c3.313 0 6 2.687 6 6v36z"/><path fill="#29AAE1" d="M21.957 22.401c.596-.304 1.047-.641 1.353-1.011.547-.658.822-1.528.822-2.612 0-1.051-.271-1.953-.814-2.708-.902-1.228-2.435-1.858-4.598-1.89h-8.574v17.742h7.994c.902 0 1.737-.081 2.507-.24.77-.162 1.438-.459 2.005-.892.502-.377.921-.843 1.256-1.396.526-.834.79-1.777.79-2.828 0-1.02-.23-1.886-.691-2.6-.462-.714-1.145-1.235-2.05-1.565zm-8.272-5.138h3.859c.85 0 1.549.092 2.097.277.635.265.953.811.953 1.637 0 .746-.24 1.266-.721 1.559-.481.293-1.106.439-1.876.439h-4.312v-3.912zm6.103 11.264c-.429.21-1.027.314-1.796.314h-4.307v-4.731h4.367c.761.009 1.353.109 1.773.302.753.345 1.13.98 1.13 1.901 0 1.092-.39 1.831-1.167 2.214zm19.697-4.804c-.159-1.03-.507-1.934-1.044-2.713-.598-.884-1.353-1.531-2.268-1.941-.916-.41-1.944-.615-3.086-.615-1.923 0-3.487.606-4.691 1.819-1.205 1.212-1.808 2.956-1.808 5.228 0 2.426.667 4.177 2.002 5.253 1.335 1.077 2.876 1.614 4.621 1.614 2.115 0 3.761-.638 4.937-1.913.756-.804 1.179-1.594 1.271-2.371h-3.503c-.204.385-.438.686-.705.902-.489.401-1.123.603-1.905.603-.736 0-1.367-.166-1.892-.494-.861-.53-1.318-1.454-1.371-2.769h9.557c.015-1.133-.022-2.002-.115-2.603zm-9.357.339c.125-.854.429-1.531.914-2.03.484-.5 1.167-.75 2.048-.75.809 0 1.486.236 2.033.708.547.471.852 1.163.914 2.072h-5.909z"/><path fill-rule="evenodd" clip-rule="evenodd" fill="#29AAE1" d="M27.77 14.325h10.531v1.708h-10.531v-1.708z"/><path fill="#fff" d="M21.957 24.125c.596-.305 1.047-.642 1.353-1.011.547-.658.822-1.528.822-2.612 0-1.051-.271-1.953-.814-2.708-.902-1.228-2.435-1.858-4.598-1.89h-8.574v17.742h7.994c.902 0 1.737-.081 2.507-.241.77-.161 1.438-.458 2.005-.892.502-.376.921-.843 1.256-1.396.526-.834.79-1.777.79-2.829 0-1.019-.23-1.885-.691-2.599-.462-.713-1.145-1.235-2.05-1.564zm-8.272-5.139h3.859c.85 0 1.549.092 2.097.277.635.265.953.811.953 1.637 0 .746-.24 1.266-.721 1.559-.481.293-1.106.439-1.876.439h-4.312v-3.912zm6.103 11.265c-.429.21-1.027.313-1.796.313h-4.307v-4.73h4.367c.761.008 1.353.108 1.773.302.753.345 1.13.979 1.13 1.901 0 1.091-.39 1.83-1.167 2.214zm19.697-4.806c-.159-1.029-.507-1.933-1.044-2.712-.598-.884-1.353-1.531-2.268-1.941-.916-.41-1.944-.615-3.086-.615-1.923 0-3.487.606-4.691 1.819-1.205 1.212-1.808 2.956-1.808 5.227 0 2.426.667 4.177 2.002 5.253 1.335 1.077 2.876 1.615 4.621 1.615 2.115 0 3.761-.639 4.937-1.914.756-.803 1.179-1.593 1.271-2.371h-3.503c-.204.385-.438.686-.705.901-.489.402-1.123.604-1.905.604-.736 0-1.367-.165-1.892-.494-.861-.53-1.318-1.453-1.371-2.769h9.557c.015-1.132-.022-2-.115-2.603zm-9.357.341c.125-.854.429-1.531.914-2.031.484-.5 1.167-.75 2.048-.75.809 0 1.486.236 2.033.708.547.471.852 1.163.914 2.073h-5.909z"/><path fill-rule="evenodd" clip-rule="evenodd" fill="#fff" d="M27.77 16.048h10.531v1.708h-10.531v-1.708z"/></svg>