<svg xmlns="http://www.w3.org/2000/svg" viewBox="0 0 48 48" enable-background="new 0 0 48 48"><linearGradient id="a" gradientUnits="userSpaceOnUse" x1="24" x2="24" y2="48.001"><stop offset="0" stop-color="#4BD0EF"/><stop offset="1" stop-color="#29AAE1"/></linearGradient><path fill-rule="evenodd" clip-rule="evenodd" fill="url(#a)" d="M48 42c0 3.313-2.687 6-6 6h-36c-3.313 0-6-2.687-6-6v-36c0-3.313 2.687-6 6-6h36c3.313 0 6 2.687 6 6v36z"/><path fill="#29AAE1" d="M40.231 13.413c-1.12.497-2.323.833-3.588.984 1.291-.774 2.28-1.998 2.747-3.457-1.206.716-2.543 1.236-3.968 1.516-1.139-1.214-2.763-1.972-4.56-1.972-3.449 0-6.246 2.796-6.246 6.247 0 .49.055.966.161 1.424-5.192-.261-9.795-2.749-12.876-6.528-.538.923-.846 1.996-.846 3.141 0 2.167 1.103 4.08 2.779 5.199-1.024-.032-1.987-.313-2.83-.781v.079c0 3.026 2.153 5.551 5.011 6.125-.525.143-1.076.219-1.646.219-.403 0-.794-.038-1.176-.11.795 2.48 3.102 4.287 5.835 4.338-2.138 1.675-4.832 2.675-7.758 2.675-.504 0-1.002-.03-1.491-.089 2.765 1.773 6.048 2.808 9.576 2.808 11.49 0 17.774-9.519 17.774-17.774 0-.271-.006-.54-.019-.809 1.224-.882 2.284-1.982 3.121-3.235z"/><path fill="#fff" d="M40.231 14.739c-1.12.497-2.323.833-3.588.984 1.291-.773 2.28-1.998 2.747-3.456-1.206.716-2.543 1.236-3.968 1.516-1.139-1.214-2.763-1.972-4.56-1.972-3.449 0-6.246 2.796-6.246 6.247 0 .489.055.966.161 1.424-5.192-.261-9.795-2.748-12.876-6.527-.538.923-.846 1.996-.846 3.141 0 2.167 1.103 4.079 2.779 5.199-1.024-.032-1.987-.313-2.83-.781v.079c0 3.027 2.153 5.551 5.011 6.125-.525.144-1.076.219-1.646.219-.403 0-.794-.038-1.176-.11.795 2.481 3.102 4.287 5.835 4.338-2.138 1.676-4.832 2.675-7.758 2.675-.504 0-1.002-.03-1.491-.089 2.765 1.773 6.048 2.808 9.576 2.808 11.49 0 17.774-9.519 17.774-17.774 0-.271-.006-.54-.019-.808 1.224-.885 2.284-1.985 3.121-3.238z"/></svg>